<svg xmlns="http://www.w3.org/2000/svg" id="Layer_1" width="210mm" height="55.99mm" viewBox="0 0 595.28 158.7"><defs><style>.cls-1{fill:#fcf6e8}.cls-2{fill:#4466f6}.cls-3{fill:#fff}</style></defs><circle cx="78.65" cy="79.92" r="50.95" class="cls-2"/><path d="M89.5 49.61c-10.5 0-19.09 8.19-19.72 18.54-.03.4-.04.81-.04 1.22 0 10.91 8.85 19.76 19.76 19.76.41 0 .82-.01 1.22-.04 10.35-.63 18.54-9.22 18.54-19.72s-8.85-19.76-19.76-19.76m0 29.91c-5.61 0-10.15-4.54-10.15-10.15s4.54-10.15 10.15-10.15 10.15 4.54 10.15 10.15-4.54 10.15-10.15 10.15" class="cls-1"/><path d="M61.81 96.78V51.15H50.99v56.45h56.45V96.78z" class="cls-1"/><path d="M147.9 103.53V54.32h9.28v40.41h20.83v8.8h-30.1ZM200.34 104.63c-3.67 0-6.91-.81-9.72-2.44-2.82-1.63-5.02-3.85-6.6-6.67s-2.37-5.99-2.37-9.52.79-6.7 2.37-9.52 3.78-5.04 6.6-6.67 6.06-2.44 9.72-2.44 6.9.82 9.69 2.47 4.98 3.87 6.56 6.67 2.37 5.96 2.37 9.49-.79 6.7-2.37 9.52-3.77 5.04-6.56 6.67c-2.8 1.63-6.03 2.44-9.69 2.44m0-8.39c1.74 0 3.33-.4 4.78-1.2 1.44-.8 2.61-1.97 3.51-3.5.89-1.53 1.34-3.38 1.34-5.53s-.45-3.99-1.34-5.5q-1.335-2.265-3.51-3.51c-1.44-.82-3.01-1.24-4.71-1.24s-3.36.41-4.85 1.24q-2.235 1.23-3.57 3.51c-.89 1.51-1.34 3.34-1.34 5.5s.45 4 1.34 5.53c.89 1.54 2.08 2.7 3.57 3.5s3.08 1.2 4.78 1.2M245.53 81.99l13.3-12.97v-.55h-11.07l-13.06 12.9V54.32h-9v49.21h9V92.55l4.49-4.38 9.6 15.36h10.65v-.55zM274.08 104.63c-2.47 0-4.66-.49-6.56-1.48-1.9-.98-3.4-2.37-4.5-4.16s-1.65-3.85-1.65-6.19.63-4.51 1.89-6.25 2.96-3.09 5.09-4.06q3.195-1.44 7.11-1.44c1.42 0 2.71.08 3.88.24s2.21.36 3.13.58c.92.23 1.67.48 2.27.76v-1.51c0-1.88-.71-3.43-2.13-4.64s-3.37-1.82-5.84-1.82c-1.65 0-3.24.38-4.78 1.13-1.54.76-2.81 1.75-3.81 2.99l-5.77-4.54c1.14-1.47 2.47-2.71 3.99-3.75s3.18-1.81 5.02-2.34c1.83-.53 3.76-.79 5.77-.79 5.36 0 9.44 1.24 12.23 3.71s4.19 6.09 4.19 10.86v21.58h-8.87v-3.57h-.55c-.64.82-1.44 1.59-2.41 2.3-.96.71-2.09 1.28-3.37 1.72s-2.73.65-4.33.65Zm2.13-7.02c1.83 0 3.38-.4 4.64-1.2s2.22-1.84 2.89-3.13c.66-1.28 1-2.63 1-4.06-1.01-.5-2.15-.9-3.44-1.2-1.28-.3-2.59-.45-3.92-.45-2.66 0-4.49.5-5.5 1.51s-1.51 2.25-1.51 3.71c0 1.37.49 2.52 1.48 3.44.98.92 2.44 1.37 4.36 1.37ZM301.78 103.53V54.32h9v49.21z"/><path d="M400.6 68.47c-2.41-1.47-5.14-2.2-8.21-2.2q-2.61 0-4.71.72c-1.4.48-2.6 1.12-3.61 1.93-1.01.8-1.83 1.68-2.47 2.65h-.55v-4.19h-8.45v51h9v-13.75l-.55-5.36h.55c.83 1.42 2.14 2.67 3.95 3.75s4.09 1.62 6.84 1.62c3.07 0 5.81-.73 8.21-2.2 2.41-1.47 4.32-3.63 5.74-6.49s2.13-6.36 2.13-10.48-.71-7.67-2.13-10.52c-1.42-2.84-3.33-4.99-5.74-6.46Zm-2.33 23.03c-.8 1.6-1.9 2.8-3.3 3.57q-2.1 1.17-4.71 1.17c-2.61 0-3.31-.39-4.71-1.17q-2.1-1.17-3.3-3.57c-.8-1.6-1.2-3.62-1.2-6.05s.4-4.44 1.2-6.05q1.2-2.4 3.3-3.57t4.71-1.17c2.61 0 3.31.39 4.71 1.17q2.1 1.17 3.3 3.57c.8 1.61 1.2 3.62 1.2 6.05s-.4 4.44-1.2 6.05M430.33 95.62c-1.42 0-2.46-.37-3.13-1.1s-1-1.92-1-3.57V75.07h8.25v-7.7h-8.25v-9.9h-9v9.9h-5.98v7.7h5.98v17.25c0 3.71 1.01 6.6 3.02 8.66 2.02 2.06 4.83 3.09 8.45 3.09 1.05 0 2.06-.09 3.02-.27s1.95-.48 2.96-.89v-8.59c-.87.46-1.63.79-2.27 1s-1.33.31-2.06.31ZM446.2 49.5c-1.61 0-2.98.57-4.12 1.72-1.15 1.15-1.72 2.52-1.72 4.12s.57 2.98 1.72 4.12 2.52 1.72 4.12 1.72 2.98-.57 4.12-1.72 1.72-2.52 1.72-4.12-.57-2.98-1.72-4.12-2.52-1.72-4.12-1.72M441.67 67.37h9v36.15h-9zM499.88 66.27c-2.75 0-5.04.52-6.87 1.55s-3.28 2.37-4.33 4.02c-.78-1.65-1.99-2.99-3.64-4.02s-3.69-1.55-6.12-1.55c-1.47 0-2.84.23-4.12.69s-2.42 1.1-3.4 1.92c-.99.82-1.82 1.79-2.51 2.89h-.55v-4.4h-8.45v36.15h9V83.31c0-1.79.28-3.33.83-4.64s1.32-2.31 2.3-3.02 2.14-1.06 3.47-1.06c1.88 0 3.3.53 4.26 1.58s1.44 2.63 1.44 4.74v22.61h9V83.31c0-1.79.29-3.33.86-4.64s1.38-2.31 2.44-3.02c1.05-.71 2.29-1.06 3.71-1.06 1.65 0 2.94.53 3.88 1.58q1.41 1.575 1.41 4.74v22.61h8.94V79.46c0-4.03-.94-7.24-2.82-9.62q-2.82-3.57-8.73-3.57M533.99 66.27c-2.38 0-4.64.39-6.77 1.17s-3.96 1.95-5.5 3.5c-1.54 1.56-2.58 3.55-3.13 5.98l7.84 1.65c.5-1.6 1.42-2.85 2.75-3.75 1.33-.89 2.89-1.34 4.67-1.34 2.43 0 4.31.57 5.64 1.72s1.99 2.66 1.99 4.54v2.89c-1.1-.23-2.19-.44-3.27-.62s-2.14-.32-3.2-.41c-1.05-.09-2.15-.14-3.3-.14-2.61 0-4.98.46-7.11 1.37-2.13.92-3.81 2.23-5.05 3.95s-1.86 3.79-1.86 6.22.5 4.38 1.51 6.12 2.45 3.09 4.33 4.06c1.88.96 4.1 1.44 6.67 1.44 1.65 0 3.15-.21 4.5-.62s2.55-.97 3.61-1.68 1.93-1.5 2.61-2.37h.55v3.57h8.8V80.84c0-4.77-1.35-8.39-4.06-10.86-2.7-2.47-6.78-3.71-12.23-3.71Zm6.43 27.12q-1.065 1.89-3.06 3.06c-1.33.78-2.96 1.17-4.88 1.17-1.7 0-3.09-.44-4.19-1.31s-1.65-1.99-1.65-3.37c0-1.47.5-2.67 1.51-3.61s2.63-1.41 4.88-1.41c1.42 0 2.86.13 4.33.38s2.84.58 4.12 1c0 1.47-.36 2.83-1.07 4.09ZM558 50.19h9v53.33h-9zM341.85 53.22c-14.2 0-25.7 11.5-25.7 25.7s11.5 25.71 25.7 25.71 25.7-11.51 25.7-25.71-11.5-25.7-25.7-25.7m0 41.25c-8.59 0-15.55-6.96-15.55-15.55s6.96-15.55 15.55-15.55 15.55 6.96 15.55 15.55-6.96 15.55-15.55 15.55" class="cls-2"/><circle cx="79.22" cy="79.92" r="50.95" class="cls-2"/><path d="M87.26 51.08c-9.05 0-16.45 7.06-16.98 15.98-.02.34-.04.69-.04 1.04 0 9.4 7.62 17.03 17.02 17.03.35 0 .71-.01 1.05-.04 8.92-.54 15.98-7.95 15.98-17s-7.62-17.02-17.03-17.02Zm0 25.77c-4.83 0-8.74-3.91-8.74-8.75s3.91-8.74 8.74-8.74 8.75 3.91 8.75 8.74-3.91 8.75-8.75 8.75" class="cls-3"/><path d="M90.43 93.7c-3.05.55-5.98 1.51-8.81 2.43-3.08 1-5.99 1.94-8.72 2.29-2.56.32-4.72 0-6.53-.97-2.32-1.25-3.66-3.78-3.66-6.42V54.08h-9.32v37.89c0 5.11 2.34 10.04 6.53 12.97 3.18 2.22 6.94 3.37 11.14 3.37 1 0 2.02-.07 3.07-.2 3.65-.46 7.13-1.59 10.51-2.69 2.65-.85 5.15-1.67 7.54-2.1 5.12-.94 8.58.28 11.12 3.9V94.87c-3.71-1.64-8.04-2.04-12.86-1.16Z" class="cls-3"/></svg>